<svg width="60" height="60" viewBox="0 0 60 60" fill="none" xmlns="http://www.w3.org/2000/svg">
<path d="M30 32.5C34.1421 32.5 37.5 29.1421 37.5 25C37.5 20.8579 34.1421 17.5 30 17.5C25.8579 17.5 22.5 20.8579 22.5 25C22.5 29.1421 25.8579 32.5 30 32.5Z" stroke="#A53DFF" stroke-width="5" stroke-linecap="round" stroke-linejoin="round"/>
<path d="M30 5C24.6957 5 19.6086 7.10714 15.8579 10.8579C12.1071 14.6086 10 19.6957 10 25C10 29.73 11.005 32.825 13.75 36.25L30 55L46.25 36.25C48.995 32.825 50 29.73 50 25C50 19.6957 47.8929 14.6086 44.1421 10.8579C40.3914 7.10714 35.3043 5 30 5Z" stroke="#A53DFF" stroke-width="5" stroke-linecap="round" stroke-linejoin="round"/>
</svg>
