<svg width="30" height="30" viewBox="0 0 30 30" fill="none" xmlns="http://www.w3.org/2000/svg">
<path fill-rule="evenodd" clip-rule="evenodd" d="M9.0625 12.5C9.0625 10.9253 9.68806 9.41505 10.8016 8.30155C11.9151 7.18806 13.4253 6.5625 15 6.5625C16.5747 6.5625 18.0849 7.18806 19.1984 8.30155C20.3119 9.41505 20.9375 10.9253 20.9375 12.5C20.9375 14.0747 20.3119 15.5849 19.1984 16.6984C18.0849 17.8119 16.5747 18.4375 15 18.4375C13.4253 18.4375 11.9151 17.8119 10.8016 16.6984C9.68806 15.5849 9.0625 14.0747 9.0625 12.5ZM15 8.4375C13.9226 8.4375 12.8892 8.86551 12.1274 9.62738C11.3655 10.3892 10.9375 11.4226 10.9375 12.5C10.9375 13.5774 11.3655 14.6108 12.1274 15.3726C12.8892 16.1345 13.9226 16.5625 15 16.5625C16.0774 16.5625 17.1108 16.1345 17.8726 15.3726C18.6345 14.6108 19.0625 13.5774 19.0625 12.5C19.0625 11.4226 18.6345 10.3892 17.8726 9.62738C17.1108 8.86551 16.0774 8.4375 15 8.4375Z" fill="#A53DFF"/>
<path fill-rule="evenodd" clip-rule="evenodd" d="M4.40498 11.0713C4.61864 8.47975 5.79902 6.06336 7.71175 4.30184C9.62448 2.54032 12.1297 1.56249 14.73 1.5625H15.27C17.8703 1.56249 20.3755 2.54032 22.2882 4.30184C24.201 6.06336 25.3813 8.47975 25.595 11.0713C25.8327 13.9579 24.941 16.8241 23.1075 19.0663L17.1162 26.3925C16.8598 26.706 16.537 26.9587 16.171 27.1322C15.805 27.3057 15.405 27.3957 15 27.3957C14.595 27.3957 14.195 27.3057 13.829 27.1322C13.463 26.9587 13.1401 26.706 12.8837 26.3925L6.89248 19.0663C5.05888 16.8241 4.16709 13.9579 4.40498 11.0713ZM14.73 3.4375C12.6006 3.43782 10.5492 4.23878 8.98288 5.6814C7.41662 7.12401 6.45003 9.10281 6.27498 11.225C6.07698 13.6273 6.81909 16.0127 8.34498 17.8788L14.3362 25.2063C14.4168 25.3048 14.5182 25.3843 14.6332 25.4388C14.7482 25.4934 14.8739 25.5217 15.0012 25.5217C15.1285 25.5217 15.2542 25.4934 15.3692 25.4388C15.4842 25.3843 15.5857 25.3048 15.6662 25.2063L21.6575 17.8788C23.1825 16.0124 23.9237 13.627 23.725 11.225C23.5499 9.10259 22.5832 7.12362 21.0166 5.68098C19.4501 4.23833 17.3983 3.43751 15.2687 3.4375H14.7287H14.73Z" fill="#A53DFF"/>
</svg>
