<svg width="60" height="60" viewBox="0 0 60 60" fill="none" xmlns="http://www.w3.org/2000/svg">
<path d="M54.375 1.40622H5.625C4.5189 1.39497 3.4535 1.82296 2.66259 2.5963C1.87168 3.36964 1.41985 4.42514 1.40625 5.53122V54.4781C1.42231 55.5825 1.87522 56.6357 2.66586 57.407C3.45651 58.1783 4.5205 58.605 5.625 58.5937H54.375C55.4812 58.6025 56.5458 58.173 57.3364 57.3992C58.1269 56.6254 58.5789 55.5701 58.5938 54.464V5.51716C58.574 4.41433 58.1198 3.36385 57.3298 2.59406C56.5399 1.82427 55.478 1.3974 54.375 1.40622ZM18.3609 50.1562H9.87187V22.8422H18.3609V50.1562ZM14.1422 19.1203C13.1685 19.1212 12.2165 18.8333 11.4065 18.2931C10.5964 17.7528 9.96487 16.9845 9.59163 16.0852C9.21838 15.1859 9.12024 14.1961 9.30963 13.2411C9.49901 12.286 9.9674 11.4086 10.6556 10.7198C11.3437 10.031 12.2207 9.56175 13.1756 9.37145C14.1304 9.18116 15.1203 9.27836 16.0199 9.65074C16.9196 10.0231 17.6885 10.654 18.2296 11.4635C18.7706 12.273 19.0594 13.2248 19.0594 14.1984C19.0581 14.8456 18.9293 15.4861 18.6802 16.0834C18.4312 16.6807 18.0668 17.223 17.6079 17.6793C17.1489 18.1356 16.6046 18.4969 16.0059 18.7425C15.4072 18.9882 14.7659 19.1134 14.1188 19.1109L14.1422 19.1203ZM50.1562 50.1562H41.6672V36.8672C41.6672 33.7031 41.6109 29.6297 37.2563 29.6297C32.9016 29.6297 32.1609 33.0797 32.1609 36.6609V50.1562H23.6859V22.8422H31.8234V26.5922H31.9359C33.0703 24.4453 35.8359 22.1812 39.9656 22.1812C48.5625 22.1625 50.1562 27.8203 50.1562 35.1562V50.1562Z" fill="#A53DFF"/>
</svg>
