<svg width="73" height="72" viewBox="0 0 73 72" fill="none" xmlns="http://www.w3.org/2000/svg">
<rect x="0.297974" width="72" height="72" rx="6" fill="#EDD8FF" fill-opacity="0.5"/>
<path d="M48.2979 38.6668H46.9646V29.3335C46.9646 28.2726 46.5432 27.2552 45.793 26.5051C45.0429 25.7549 44.0255 25.3335 42.9646 25.3335H29.6313C28.5704 25.3335 27.553 25.7549 26.8028 26.5051C26.0527 27.2552 25.6313 28.2726 25.6313 29.3335V38.6668H24.2979C23.9443 38.6668 23.6052 38.8073 23.3551 39.0574C23.1051 39.3074 22.9646 39.6465 22.9646 40.0002V42.6668C22.9646 43.7277 23.386 44.7451 24.1362 45.4953C24.8863 46.2454 25.9037 46.6668 26.9646 46.6668H45.6313C46.6921 46.6668 47.7095 46.2454 48.4597 45.4953C49.2098 44.7451 49.6313 43.7277 49.6313 42.6668V40.0002C49.6313 39.6465 49.4908 39.3074 49.2407 39.0574C48.9907 38.8073 48.6516 38.6668 48.2979 38.6668ZM28.2979 29.3335C28.2979 28.9799 28.4384 28.6407 28.6885 28.3907C28.9385 28.1406 29.2776 28.0002 29.6313 28.0002H42.9646C43.3182 28.0002 43.6574 28.1406 43.9074 28.3907C44.1575 28.6407 44.2979 28.9799 44.2979 29.3335V38.6668H28.2979V29.3335ZM46.9646 42.6668C46.9646 43.0205 46.8241 43.3596 46.5741 43.6096C46.324 43.8597 45.9849 44.0002 45.6313 44.0002H26.9646C26.611 44.0002 26.2718 43.8597 26.0218 43.6096C25.7717 43.3596 25.6313 43.0205 25.6313 42.6668V41.3335H46.9646V42.6668Z" fill="#A53DFF"/>
</svg>
