<svg width="60" height="60" viewBox="0 0 60 60" fill="none" xmlns="http://www.w3.org/2000/svg">
<path d="M30 55C26.5417 55 23.2917 54.3433 20.25 53.03C17.2083 51.7167 14.5625 49.9358 12.3125 47.6875C10.0625 45.4375 8.28167 42.7917 6.97 39.75C5.65833 36.7083 5.00167 33.4583 5 30C5 26.5417 5.65667 23.2917 6.97 20.25C8.28333 17.2083 10.0642 14.5625 12.3125 12.3125C14.5625 10.0625 17.2083 8.28167 20.25 6.97C23.2917 5.65833 26.5417 5.00167 30 5C33.4583 5 36.7083 5.65667 39.75 6.97C42.7917 8.28333 45.4375 10.0642 47.6875 12.3125C49.9375 14.5625 51.7192 17.2083 53.0325 20.25C54.3458 23.2917 55.0017 26.5417 55 30V33.625C55 36.0833 54.1567 38.1775 52.47 39.9075C50.7833 41.6375 48.71 42.5017 46.25 42.5C44.7917 42.5 43.4167 42.1875 42.125 41.5625C40.8333 40.9375 39.75 40.0417 38.875 38.875C37.6667 40.0833 36.3017 40.99 34.78 41.595C33.2583 42.2 31.665 42.5017 30 42.5C26.5417 42.5 23.5933 41.2808 21.155 38.8425C18.7167 36.4042 17.4983 33.4567 17.5 30C17.5 26.5417 18.7192 23.5933 21.1575 21.155C23.5958 18.7167 26.5433 17.4983 30 17.5C33.4583 17.5 36.4067 18.7192 38.845 21.1575C41.2833 23.5958 42.5017 26.5433 42.5 30V33.625C42.5 34.7083 42.8542 35.625 43.5625 36.375C44.2708 37.125 45.1667 37.5 46.25 37.5C47.3333 37.5 48.2292 37.125 48.9375 36.375C49.6458 35.625 50 34.7083 50 33.625V30C50 24.4167 48.0625 19.6875 44.1875 15.8125C40.3125 11.9375 35.5833 10 30 10C24.4167 10 19.6875 11.9375 15.8125 15.8125C11.9375 19.6875 10 24.4167 10 30C10 35.5833 11.9375 40.3125 15.8125 44.1875C19.6875 48.0625 24.4167 50 30 50H40C40.7083 50 41.3025 50.24 41.7825 50.72C42.2625 51.2 42.5017 51.7933 42.5 52.5C42.5 53.2083 42.26 53.8025 41.78 54.2825C41.3 54.7625 40.7067 55.0017 40 55H30ZM30 37.5C32.0833 37.5 33.8542 36.7708 35.3125 35.3125C36.7708 33.8542 37.5 32.0833 37.5 30C37.5 27.9167 36.7708 26.1458 35.3125 24.6875C33.8542 23.2292 32.0833 22.5 30 22.5C27.9167 22.5 26.1458 23.2292 24.6875 24.6875C23.2292 26.1458 22.5 27.9167 22.5 30C22.5 32.0833 23.2292 33.8542 24.6875 35.3125C26.1458 36.7708 27.9167 37.5 30 37.5Z" fill="#A53DFF"/>
</svg>
