<svg width="60" height="60" viewBox="0 0 60 60" fill="none" xmlns="http://www.w3.org/2000/svg">
<g clip-path="url(#clip0_1455_466)">
<path d="M17.1425 6.11267C20.3 8.41517 22.69 11.6502 24.725 14.6227L26.32 16.9677C26.8153 17.6916 27.0419 18.5659 26.9607 19.4392C26.8794 20.3126 26.4954 21.1301 25.875 21.7502L22.485 25.1402L22.8425 25.9002C23.7175 27.6727 25.2275 30.2252 27.5 32.5002C29.0692 34.0457 30.8382 35.3742 32.76 36.4502L33.6775 36.9427L34.495 37.3477L34.86 37.5152L38.2475 34.1252C38.87 33.5035 39.6911 33.1201 40.5675 33.0419C41.4438 32.9638 42.3198 33.1959 43.0425 33.6977L45.5775 35.4552C48.4575 37.4802 51.465 39.7877 53.8025 42.7827C54.2066 43.3024 54.4636 43.9212 54.5467 44.5743C54.6298 45.2274 54.536 45.8908 54.275 46.4952C52.1825 51.3777 46.8875 55.5352 41.38 55.3302L40.63 55.2902L40.0475 55.2402L39.4025 55.1652L38.7 55.0702L37.9375 54.9427L37.1225 54.7827L36.2575 54.5902L35.3425 54.3552L34.38 54.0802L33.375 53.7552C28.76 52.1902 22.9025 49.1152 16.8925 43.1052C10.885 37.0977 7.80999 31.2402 6.24499 26.6252L5.91999 25.6202L5.64499 24.6577L5.40999 23.7427L5.21499 22.8777C5.15867 22.6068 5.10616 22.3351 5.05749 22.0627L4.93249 21.3002L4.83249 20.5977L4.75999 19.9527L4.70999 19.3702L4.66999 18.6202C4.46749 13.1302 8.66999 7.79767 13.53 5.71517C14.1149 5.46259 14.7555 5.36642 15.3888 5.43611C16.0221 5.5058 16.6265 5.73895 17.1425 6.11267ZM14.825 10.6327C12.145 12.0327 9.54999 15.2327 9.66749 18.4352L9.71749 19.2552L9.77249 19.7677L9.84499 20.3427L9.94499 20.9752L10.0725 21.6677L10.235 22.4127L10.435 23.2127L10.675 24.0602L10.96 24.9552C11.065 25.2602 11.175 25.5727 11.295 25.8927L11.68 26.8727L12.12 27.8902C13.69 31.3452 16.25 35.3902 20.4325 39.5702C24.6125 43.7502 28.6575 46.3127 32.1125 47.8827L33.13 48.3227L34.11 48.7077C34.43 48.8277 34.7425 48.9377 35.0475 49.0427L35.9425 49.3277L36.7925 49.5677L37.59 49.7677L38.335 49.9302L39.0275 50.0577L39.6625 50.1577L40.2375 50.2327L40.7475 50.2827L41.5675 50.3327C44.7275 50.4502 47.9525 47.8702 49.3475 45.2252C47.5675 43.1377 45.3575 41.4252 42.92 39.7002L41.05 38.3977L40.575 38.8952L39.56 40.0027L39.0225 40.5677C37.5575 42.0602 35.8475 43.3277 33.7975 42.5002L33.2325 42.2627L32.5425 41.9527L32.1575 41.7702L31.3125 41.3477L30.385 40.8477C28.0378 39.5415 25.8789 37.9225 23.9675 36.0352C22.0802 34.1237 20.4612 31.9648 19.155 29.6177L18.655 28.6927L18.23 27.8452L17.74 26.7702L17.5 26.2002C16.7225 24.2777 17.7925 22.6552 19.16 21.2502L19.72 20.7002L21.1125 19.4177L21.6125 18.9427L20.43 17.2102C18.6725 14.6602 16.955 12.3602 14.8225 10.6302L14.825 10.6327ZM37.4825 15.1002L37.7725 15.1327C39.5923 15.4537 41.2637 16.3425 42.5472 17.6719C43.8308 19.0012 44.6605 20.7028 44.9175 22.5327C45.0091 23.1656 44.8547 23.8096 44.486 24.3322C44.1173 24.8547 43.5623 25.2161 42.9353 25.342C42.3082 25.4678 41.6568 25.3486 41.115 25.0088C40.5732 24.669 40.1822 24.1345 40.0225 23.5152L39.965 23.2277C39.8644 22.5104 39.5583 21.8376 39.0836 21.2906C38.6089 20.7436 37.9859 20.3458 37.29 20.1452L36.9025 20.0577C36.2747 19.9464 35.7132 19.5995 35.3327 19.0879C34.9523 18.5764 34.7817 17.9388 34.8557 17.3055C34.9298 16.6723 35.243 16.0913 35.7313 15.6814C36.2196 15.2714 36.846 15.0635 37.4825 15.1002ZM37.5 7.50017C41.4782 7.50017 45.2936 9.08053 48.1066 11.8936C50.9196 14.7066 52.5 18.5219 52.5 22.5002C52.4993 23.1374 52.2553 23.7503 51.8179 24.2136C51.3804 24.6769 50.7826 24.9558 50.1465 24.9931C49.5104 25.0304 48.884 24.8235 48.3954 24.4145C47.9068 24.0055 47.5928 23.4254 47.5175 22.7927L47.5 22.5002C47.5009 19.9612 46.5356 17.5171 44.8 15.664C43.0644 13.8109 40.6886 12.6878 38.155 12.5227L37.5 12.5002C36.837 12.5002 36.2011 12.2368 35.7322 11.7679C35.2634 11.2991 35 10.6632 35 10.0002C35 9.33713 35.2634 8.70125 35.7322 8.23241C36.2011 7.76356 36.837 7.50017 37.5 7.50017Z" fill="#A53DFF"/>
</g>
<defs>
<clipPath id="clip0_1455_466">
<rect width="60" height="60" fill="white"/>
</clipPath>
</defs>
</svg>
