<svg width="519" height="106" viewBox="0 0 519 106" fill="none" xmlns="http://www.w3.org/2000/svg">
<rect x="0.5" y="0.5" width="517.82" height="105" rx="5.5" fill="#EDD8FF" fill-opacity="0.5"/>
<path fill-rule="evenodd" clip-rule="evenodd" d="M24.7021 33.4691C26.4921 33.4691 28.2821 33.4968 30.0697 33.4501C30.5438 33.4377 31.3945 33.8299 31.3564 32.8444C31.3273 32.0423 30.5834 32.3325 30.1326 32.3254C28.1134 32.2935 26.0875 32.2167 24.0764 32.343C22.6453 32.4321 22.2235 31.8889 22.4032 30.5764C22.4652 30.1237 22.4056 29.6547 22.4151 29.1934C22.478 26.1215 23.2205 25.0759 26.2 24.3182C29.4825 23.4842 32.8418 23.5119 36.1153 24.2305C39.0581 24.8767 40.2805 27.1661 40.1318 29.284C39.9507 31.8684 40.0908 34.4752 40.0884 37.0724C40.0841 40.3383 38.3966 42.0716 35.1041 42.1169C32.3924 42.154 29.6775 42.1836 26.9672 42.1083C23.7371 42.0177 21.3676 44.7008 21.3514 47.7412C21.3514 47.9719 21.391 48.2102 21.3452 48.4327C21.1127 49.5493 22.042 51.3541 20.8582 51.6858C19.0568 52.1919 16.9475 52.1919 15.3587 50.5844C14.8201 50.0411 14.3665 49.4326 14.1272 48.7292C12.8505 44.981 12.6489 41.1852 13.8508 37.3784C14.6 35.0023 16.6377 33.5244 19.1621 33.482C21.0083 33.451 22.855 33.4758 24.7012 33.4758L24.7021 33.4691ZM27.9914 28.1698C27.9142 27.2629 27.4266 26.6009 26.4206 26.5733C25.3202 26.5447 24.7517 27.21 24.7503 28.2927C24.7493 29.2964 25.2959 29.9393 26.2948 29.9683C27.3923 30.0003 27.9237 29.3202 27.9914 28.1698Z" fill="#386F9F"/>
<path fill-rule="evenodd" clip-rule="evenodd" d="M38.5177 51.8429C36.4971 51.8429 34.4755 51.8253 32.4549 51.8572C31.9997 51.8629 31.2363 51.5751 31.2125 52.3533C31.1858 53.2359 32.005 53.0062 32.5254 53.0114C34.546 53.0367 36.5685 53.0581 38.5887 53.0019C39.6266 52.9733 40.0503 53.172 40.128 54.3958C40.4792 59.9359 38.075 60.4148 33.6405 61.4228C31.0966 62.0008 28.3693 61.6944 25.8607 60.5707C23.7862 59.6428 22.5133 58.3056 22.6739 55.8017C22.8331 53.3302 22.8597 50.8269 22.6696 48.3578C22.4408 45.3779 24.2947 43.1861 27.8999 43.1852C30.3256 43.1847 32.7675 42.9998 35.1722 43.2209C38.6106 43.5364 41.3065 40.556 41.4247 37.0904C41.4295 36.9756 41.3999 36.8521 41.4295 36.7454C41.7326 35.6803 40.6546 34.0971 42.0967 33.5591C44.276 32.7466 46.7336 33.6006 47.8469 35.2542C49.2503 37.3363 49.44 39.7863 49.6669 42.1787C49.9123 44.7574 49.1889 47.185 48.1056 49.5111C47.3698 51.0885 46.1327 51.851 44.4089 51.8534C42.4455 51.8548 40.4825 51.8534 38.5186 51.8534C38.5177 51.8496 38.5177 51.8462 38.5177 51.8429ZM37.9916 56.9898C37.7757 56.0052 37.3315 55.3332 36.1878 55.3051C34.9983 55.2765 34.6914 56.1663 34.6976 56.9607C34.7042 57.8052 34.9396 58.8441 36.2273 58.7469C37.2977 58.6649 37.8195 58.002 37.9916 56.9898Z" fill="#FFCF46"/>
<path fill-rule="evenodd" clip-rule="evenodd" d="M6.73336 77.2329C6.73336 78.4634 6.78912 79.6157 6.70715 80.7581C6.67189 81.2508 7.21517 82.1782 6.1815 82.1773C5.27031 82.1773 5.03632 81.4519 5.06539 80.5755C5.12115 78.9028 5.0816 77.2267 5.0816 75.5526V71.741C5.0816 69.444 5.69779 68.6662 7.89474 68.1906C9.93729 67.7465 11.5424 68.4341 12.3678 70.2222C13.1932 72.0108 13.257 73.8536 12.4311 75.6731C11.6172 77.466 10.1179 78.1351 8.19736 77.6037C7.75988 77.4845 7.3181 77.3811 6.73336 77.2329ZM6.73336 72.7304C6.73336 73.3642 6.81914 74.0104 6.71573 74.6271C6.47649 76.0525 7.38673 76.4037 8.45995 76.6572C9.52125 76.9079 10.249 76.4566 10.6745 75.5216C11.3899 73.9537 11.5099 72.3367 10.9667 70.6788C10.4844 69.2052 9.37066 69.0327 8.0706 69.2157C6.78674 69.3982 6.61279 70.2713 6.72478 71.3507C6.77244 71.8058 6.73336 72.2705 6.73336 72.7304ZM20.5475 77.1567C19.6682 77.3854 18.9048 77.6294 18.1232 77.7762C16.4123 78.096 15.1456 77.1567 14.7001 75.4439C14.1472 73.3242 14.6152 71.2125 14.6295 69.0975C14.6357 68.1334 15.5278 68.5094 16.145 67.9929C16.145 70.2565 16.1536 72.2104 16.1421 74.1629C16.1359 75.1437 16.3895 75.95 17.3169 76.4671C18.3405 77.038 19.1802 76.4942 20.0714 76.1278C20.71 75.8652 20.6304 75.3291 20.6314 74.8191C20.6361 72.9739 20.6309 71.1305 20.6371 69.2853C20.638 68.8302 20.5908 68.274 21.2628 68.2964C21.8618 68.316 22.1225 68.672 22.1125 69.3248C22.0691 72.3782 22.1554 75.4358 22.0315 78.4849C21.9376 80.7905 20.3111 82.1987 17.9712 82.3021C17.6209 82.3169 17.254 82.3493 17.1229 81.9147C16.9232 81.2456 17.4651 81.3719 17.8211 81.258C20.395 80.4392 20.7314 79.9503 20.5475 77.1567ZM31.4245 69.2338C32.1056 68.9121 32.4968 68.6176 32.9271 68.538C35.3419 68.0915 37.1924 68.2616 37.1876 71.5142C37.1843 73.1893 37.1886 74.8649 37.1843 76.5395C37.1833 77.0085 37.2133 77.465 36.5142 77.5055C35.777 77.5494 35.615 77.1276 35.6183 76.5495C35.6269 74.9354 35.6707 73.3213 35.6693 71.7077C35.6683 70.4543 35.4124 69.3449 33.8183 69.3487C32.4201 69.3511 31.4298 70.3947 31.4226 71.8349C31.4146 73.3939 31.4151 74.9529 31.4241 76.5119C31.4255 77.0656 31.4374 77.5513 30.6368 77.5055C29.9157 77.4626 30.0044 76.9765 30.0044 76.529C29.9996 72.4306 30.0196 68.3279 29.9848 64.2266C29.9787 63.5079 30.2622 63.0619 30.8998 63.0314C31.7996 62.9899 31.3874 63.7767 31.4007 64.1713C31.4593 65.7778 31.4245 67.3881 31.4245 69.2338ZM39.0448 72.9086C38.9538 69.7085 40.4716 68 43.2195 68.0991C44.5986 68.1496 45.6333 68.7615 46.3009 69.953C47.4804 72.0603 47.3208 74.1686 46.0445 76.1421C45.1676 77.4974 43.819 78.1365 42.1748 77.7876C40.5536 77.4445 39.284 75.9848 39.0543 74.2835C38.9933 73.8331 39.0448 73.3666 39.0448 72.9086ZM45.3926 72.9834C45.3201 72.4249 45.333 71.6462 45.1005 70.9514C44.7826 69.9982 44.2031 69.231 43.0207 69.1785C41.8279 69.1271 41.2327 69.8243 40.8347 70.7893C40.21 72.3043 40.2505 73.8255 40.9272 75.3133C41.3618 76.2717 42.0328 76.9732 43.1956 76.7788C44.3408 76.5877 45.0166 75.8371 45.2506 74.7233C45.3568 74.2187 45.3397 73.6897 45.3926 72.9834ZM48.7319 73.4099C48.7319 72.8323 48.7209 72.2557 48.7338 71.681C48.7605 70.573 48.4073 69.3453 49.9013 68.7792C51.6122 68.133 53.3078 67.6488 55.0301 68.6491C55.6744 69.0237 55.9118 69.7042 55.9184 70.4267C55.9361 72.443 55.9094 74.4603 55.9365 76.4766C55.9461 77.18 55.7612 77.5317 54.9705 77.5127C54.1041 77.4922 54.2867 76.9012 54.2924 76.4294C54.3129 74.8187 54.4249 73.2093 54.3944 71.6009C54.3543 69.5755 53.243 68.7496 51.3496 69.2467C50.5642 69.4535 50.0734 69.8348 50.112 70.807C50.1887 72.7046 50.1296 74.609 50.1368 76.51C50.1387 77.0609 50.1468 77.5489 49.3519 77.5027C48.6237 77.4607 48.7428 76.957 48.7371 76.52C48.7238 75.483 48.7333 74.4455 48.7319 73.4099ZM27.969 68.9188C27.8498 69.0599 27.7498 69.281 27.6449 69.2829C25.7558 69.3091 26.28 70.7193 26.2314 71.7653C26.1852 72.7399 26.2314 73.7192 26.2176 74.6967C26.2033 75.6679 26.2877 76.5705 27.4695 76.8283C27.8084 76.9017 27.9628 77.0971 27.8923 77.4355C27.8146 77.8091 27.5167 77.7943 27.2217 77.7905C25.8635 77.7667 24.8566 76.8064 24.8165 75.4005C24.7755 73.9642 24.8313 72.5245 24.7975 71.0896C24.7798 70.4081 25.1339 69.5383 24.035 69.2681C23.9144 69.2391 23.8715 68.8974 23.7929 68.7025C25.2588 68.2426 24.6507 66.9783 24.8518 66.0189C24.9471 65.5648 25.3784 65.4404 25.7859 65.4018C26.1981 65.3627 26.2014 65.6963 26.2148 65.9751C26.2691 67.0807 25.6967 68.5604 27.7321 68.4799C27.8003 68.4775 27.8799 68.7482 27.969 68.9188Z" fill="#386F9F"/>
<line x1="74.5" y1="6.55671e-08" x2="74.5" y2="106" stroke="white" stroke-width="3"/>
<path d="M115.5 49.5687C117.948 49.5687 119.932 47.5844 119.932 45.1366C119.932 42.6889 117.948 40.7046 115.5 40.7046C113.052 40.7046 111.068 42.6889 111.068 45.1366C111.068 47.5844 113.052 49.5687 115.5 49.5687Z" fill="#61DAFB"/>
<path d="M115.5 61.4351C118.979 64.8187 122.41 66.8203 125.174 66.8203C126.08 66.8203 126.938 66.6296 127.652 66.2007C130.13 64.771 131.036 61.1968 130.178 56.0976C130.035 55.1921 129.845 54.2867 129.606 53.3335C130.559 53.0476 131.417 52.7617 132.275 52.4757C137.088 50.6171 139.757 48.0437 139.757 45.232C139.757 42.3726 137.088 39.7992 132.275 37.9882C131.417 37.6546 130.559 37.3687 129.606 37.1304C129.845 36.1773 130.035 35.2718 130.178 34.3664C130.988 29.1718 130.083 25.55 127.605 24.1203C126.89 23.6914 126.032 23.5007 125.127 23.5007C122.41 23.5007 118.931 25.5023 115.452 28.8859C112.021 25.5023 108.59 23.5007 105.826 23.5007C104.92 23.5007 104.063 23.6914 103.348 24.1203C100.87 25.55 99.9641 29.1242 100.822 34.2234C100.965 35.1289 101.155 36.0343 101.394 36.9875C100.441 37.2734 99.5828 37.5593 98.725 37.8453C93.9117 39.7039 91.243 42.2773 91.243 45.089C91.243 47.9484 93.9117 50.5218 98.725 52.3328C99.5828 52.6664 100.441 52.9523 101.394 53.1906C101.155 54.1437 100.965 55.0492 100.822 55.9546C100.012 61.0539 100.917 64.6757 103.348 66.0578C104.063 66.4867 104.92 66.6773 105.826 66.6773C108.59 66.7726 112.021 64.771 115.5 61.4351ZM112.831 55.0015C113.689 55.0492 114.595 55.0492 115.5 55.0492C116.405 55.0492 117.311 55.0492 118.169 55.0015C117.311 56.1453 116.405 57.1937 115.5 58.1945C114.595 57.1937 113.689 56.1453 112.831 55.0015ZM106.922 50.0929C107.398 50.9031 107.827 51.6656 108.352 52.4281C106.874 52.2375 105.492 51.9992 104.158 51.7132C104.587 50.4265 105.063 49.0921 105.635 47.7578C106.016 48.5203 106.445 49.3304 106.922 50.0929ZM104.158 38.6078C105.492 38.3218 106.874 38.0835 108.352 37.8929C107.875 38.6554 107.398 39.4179 106.922 40.2281C106.445 41.0382 106.016 41.8007 105.635 42.6109C105.016 41.2289 104.539 39.8945 104.158 38.6078ZM106.779 45.1367C107.398 43.85 108.066 42.5632 108.828 41.2765C109.543 40.0375 110.353 38.7984 111.163 37.5593C112.593 37.464 114.023 37.4164 115.5 37.4164C117.025 37.4164 118.455 37.464 119.837 37.5593C120.695 38.7984 121.457 40.0375 122.172 41.2765C122.934 42.5632 123.602 43.85 124.221 45.1367C123.602 46.4234 122.934 47.7101 122.172 48.9968C121.457 50.2359 120.647 51.475 119.837 52.714C118.407 52.8093 116.977 52.857 115.5 52.857C113.975 52.857 112.545 52.8093 111.163 52.714C110.305 51.475 109.543 50.2359 108.828 48.9968C108.066 47.7101 107.398 46.4234 106.779 45.1367ZM125.413 42.5632L124.126 40.1804C123.649 39.3703 123.22 38.6078 122.696 37.8453C124.173 38.0359 125.555 38.2742 126.89 38.5601C126.461 39.8945 125.984 41.2289 125.413 42.5632ZM125.413 47.7101C125.984 49.0445 126.461 50.3789 126.89 51.6656C125.555 51.9515 124.173 52.1898 122.696 52.3804C123.173 51.6179 123.649 50.8554 124.126 50.0453C124.555 49.3304 124.984 48.5203 125.413 47.7101ZM126.509 64.2468C126.127 64.4851 125.651 64.5804 125.127 64.5804C122.791 64.5804 119.884 62.6742 117.025 59.8148C118.407 58.3375 119.741 56.6695 121.076 54.8109C123.316 54.6203 125.46 54.2867 127.462 53.8101C127.7 54.6679 127.843 55.5257 127.986 56.3835C128.653 60.4343 128.129 63.3414 126.509 64.2468ZM128.987 39.132C134.324 40.657 137.517 42.9921 137.517 45.1367C137.517 46.9953 135.325 48.8539 131.465 50.3312C130.702 50.6171 129.845 50.9031 128.987 51.1414C128.367 49.1875 127.605 47.1859 126.652 45.1367C127.605 43.0875 128.415 41.0859 128.987 39.132ZM125.174 25.6929C125.698 25.6929 126.127 25.7882 126.556 26.0265C128.129 26.932 128.701 29.7914 128.034 33.8898C127.891 34.7 127.7 35.5578 127.509 36.4632C125.508 36.0343 123.363 35.7007 121.123 35.4625C119.837 33.6039 118.455 31.9359 117.073 30.4585C119.932 27.6468 122.839 25.6929 125.174 25.6929ZM118.169 35.2718C117.311 35.2242 116.405 35.2242 115.5 35.2242C114.595 35.2242 113.689 35.2242 112.831 35.2718C113.689 34.1281 114.595 33.0796 115.5 32.0789C116.405 33.0796 117.311 34.1757 118.169 35.2718ZM104.491 26.0265C104.873 25.7882 105.349 25.6929 105.873 25.6929C108.209 25.6929 111.116 27.5992 113.975 30.4585C112.593 31.9359 111.259 33.6039 109.924 35.4625C107.684 35.6531 105.54 35.9867 103.538 36.4632C103.3 35.6054 103.157 34.7476 103.014 33.8898C102.347 29.839 102.871 26.9796 104.491 26.0265ZM102.013 51.1414C96.6758 49.6164 93.4828 47.2812 93.4828 45.1367C93.4828 43.2781 95.675 41.4195 99.5352 39.9421C100.298 39.6562 101.155 39.3703 102.013 39.132C102.633 41.0859 103.395 43.0875 104.348 45.1367C103.395 47.1859 102.585 49.2351 102.013 51.1414ZM103.014 56.3835C103.157 55.5734 103.348 54.7156 103.538 53.8101C105.54 54.239 107.684 54.5726 109.924 54.8109C111.211 56.6695 112.593 58.3375 113.975 59.8148C111.116 62.6265 108.209 64.5804 105.873 64.5804C105.349 64.5804 104.92 64.4851 104.491 64.2468C102.871 63.3414 102.347 60.4343 103.014 56.3835ZM101.013 76.0179C102.061 74.7312 102.109 73.3015 101.537 71.8718C100.965 70.4421 99.7734 69.775 98.2961 69.7273C96.5328 69.6796 94.7219 69.7273 92.9586 69.7273H92.625V82.0703H94.0547V77.4H96.2945C96.5805 77.4 96.8188 77.4953 96.9617 77.7335L99.8211 82.1656C99.8688 82.2609 100.012 82.4039 100.107 82.4039H101.966C100.822 80.6406 99.7258 78.9726 98.582 77.257C99.5828 77.114 100.441 76.7804 101.013 76.0179ZM94.0547 75.9226V71.2046H94.5789C95.675 71.2046 96.8188 71.157 97.9149 71.2523C99.2016 71.3 100.107 72.3007 100.107 73.5875C100.107 74.8742 99.0586 75.875 97.7719 75.9226C96.6281 75.9703 95.4844 75.9226 94.0547 75.9226ZM112.498 76.5421C111.735 73.2062 108.685 72.3484 106.35 73.3968C104.539 74.207 103.729 75.7796 103.681 77.7335C103.634 79.2109 104.063 80.5453 105.206 81.546C106.493 82.6898 108.066 82.8328 109.686 82.5468C110.591 82.3562 111.402 81.9273 112.021 81.2601C111.783 80.9265 111.545 80.5929 111.306 80.307C109.972 81.4507 108.495 81.832 106.874 81.0695C105.826 80.5453 105.302 79.2585 105.206 78.3054H112.593V77.6859C112.641 77.257 112.593 76.8757 112.498 76.5421ZM105.302 77.3046C105.159 75.875 106.588 74.35 108.161 74.35C109.972 74.3023 111.116 75.3984 111.163 77.3046H105.302ZM119.932 73.1585C119.217 73.0156 118.455 72.9679 117.74 73.0156C116.596 73.1109 115.595 73.6351 114.785 74.4929C115.023 74.8265 115.214 75.1601 115.5 75.5414C115.595 75.446 115.691 75.3507 115.786 75.3031C116.548 74.5882 117.454 74.207 118.55 74.3023C119.408 74.35 120.218 74.6359 120.456 75.4937C120.647 76.1609 120.599 76.8757 120.647 77.5906C120.504 77.5906 120.456 77.5429 120.409 77.4953C119.265 76.5421 117.978 76.3515 116.596 76.6851C115.309 77.0187 114.499 78.0195 114.404 79.3062C114.309 80.7835 114.976 81.8796 116.263 82.4039C117.073 82.7375 117.978 82.7375 118.836 82.5468C119.503 82.4039 119.789 82.0226 120.742 81.4984V82.1179H122.077C122.077 80.2117 122.124 77.8765 122.077 75.6843C122.077 74.3023 121.266 73.4445 119.932 73.1585ZM120.599 79.1632C120.552 79.3062 120.599 79.4492 120.599 79.5921C120.599 80.5929 120.361 80.9265 119.408 81.3078C118.741 81.546 118.026 81.6414 117.311 81.4031C116.501 81.1648 115.929 80.45 115.929 79.6398C115.881 78.8296 116.405 78.0195 117.216 77.7812C118.312 77.4 119.313 77.6382 120.218 78.3054C120.504 78.5437 120.695 78.782 120.599 79.1632ZM128.034 74.4453C129.273 74.064 130.416 74.3023 131.274 75.3507L131.417 75.446C131.751 75.1601 132.037 74.8742 132.418 74.5406C132.275 74.3976 132.227 74.3023 132.132 74.1593C130.75 72.682 128.034 72.4914 126.366 73.6828C124.03 75.3984 124.078 78.7343 125.222 80.4976C126.318 82.1656 127.891 82.7375 129.749 82.4992C130.845 82.3562 131.751 81.832 132.466 80.9265C132.132 80.6406 131.798 80.3546 131.465 80.021C131.37 80.1164 131.322 80.164 131.274 80.2593C129.988 81.689 127.843 81.546 126.699 80.021C126.032 79.1156 125.889 78.0671 126.08 77.0187C126.175 75.8273 126.795 74.8742 128.034 74.4453ZM137.946 80.9265C137.851 80.9742 137.803 81.0218 137.803 81.0218C137.422 81.3078 137.041 81.3554 136.612 81.2125C136.183 81.0218 136.135 80.6406 136.088 80.2593V74.8265C136.088 74.7312 136.088 74.9218 136.135 74.4453H137.946V73.0156H136.04V70.6328H134.61V73.2062H133.371C133.276 73.2062 133.133 73.3015 133.133 73.3968C133.085 73.7304 133.133 73.9687 133.133 74.4453H134.658V80.5453C134.658 81.3078 134.848 81.975 135.516 82.3562C136.23 82.7851 137.613 82.6898 138.232 82.1656C138.327 82.1179 138.375 81.9273 138.375 81.8796C138.232 81.5937 138.089 81.2601 137.946 80.9265Z" fill="#61DAFB"/>
<line x1="159.5" y1="6.55671e-08" x2="159.5" y2="106" stroke="white" stroke-width="3"/>
<path d="M177.192 42.344H180.528V57.786C178.817 58.1111 177.56 58.2412 176.196 58.2412C172.123 58.2412 170 56.3997 170 52.8684C170 49.4677 172.253 47.2583 175.741 47.2583C176.282 47.2583 176.694 47.3012 177.192 47.4313V42.344ZM177.192 50.1167C176.802 49.9871 176.477 49.9437 176.066 49.9437C174.376 49.9437 173.401 50.9836 173.401 52.8031C173.401 54.5793 174.332 55.5543 176.044 55.5543C176.412 55.5543 176.716 55.5324 177.192 55.4676L177.192 50.1167Z" fill="black"/>
<path d="M185.835 47.4956V55.2292C185.835 57.8932 185.64 59.1714 185.055 60.276C184.513 61.3383 183.798 62.0093 182.325 62.7461L179.228 61.273C180.701 60.5796 181.415 59.9734 181.87 59.0417C182.347 58.0886 182.499 56.9839 182.499 54.0807V47.4956H185.835ZM182.499 42.3616H185.835V45.7842H182.499V42.3616ZM187.85 48.2538C189.323 47.5609 190.731 47.2578 192.269 47.2578C193.98 47.2578 195.107 47.7124 195.605 48.6007C195.886 49.0987 195.973 49.7488 195.973 51.1351V57.9151C194.479 58.132 192.594 58.2835 191.207 58.2835C188.413 58.2835 187.157 57.3085 187.157 55.1425C187.157 52.8026 188.825 51.7198 192.919 51.3729V50.6366C192.919 50.0299 192.616 49.8136 191.771 49.8136C190.536 49.8136 189.15 50.16 187.85 50.832L187.85 48.2538ZM193.07 53.5613C190.861 53.7776 190.146 54.1246 190.146 54.991C190.146 55.6405 190.558 55.9441 191.468 55.9441C191.966 55.9441 192.421 55.9012 193.07 55.7925V53.5613ZM197.599 48.0155C199.57 47.4961 201.194 47.2578 202.841 47.2578C204.552 47.2578 205.787 47.6471 206.524 48.4058C207.217 49.1207 207.433 49.8998 207.433 51.5683V58.1101H204.098V51.6989C204.098 50.4207 203.664 49.9442 202.472 49.9442C202.018 49.9442 201.607 49.9871 200.935 50.1824V58.1105H197.599V48.0155ZM208.73 59.9296C209.9 60.5362 211.069 60.8179 212.304 60.8179C214.491 60.8179 215.423 59.9296 215.423 57.8065V57.7417C214.774 58.0667 214.123 58.1968 213.257 58.1968C210.332 58.1968 208.47 56.2686 208.47 53.2143C208.47 49.4233 211.221 47.2787 216.095 47.2787C217.524 47.2787 218.846 47.4303 220.449 47.7553L219.307 50.1619C218.418 49.9885 219.235 50.1381 218.564 50.0733V50.4202L218.607 51.828L218.629 53.6475C218.651 54.1026 218.651 54.5578 218.672 55.0124V55.9226C218.672 58.782 218.434 60.1245 217.719 61.2292C216.679 62.8542 214.882 63.6558 212.325 63.6558C211.025 63.6558 209.9 63.4604 208.729 63.0058V59.9291L208.73 59.9296ZM215.359 49.9647H215.012C214.362 49.9432 213.604 50.1162 213.084 50.4412C212.283 50.8963 211.871 51.7194 211.871 52.8893C211.871 54.5573 212.694 55.5104 214.167 55.5104C214.622 55.5104 214.99 55.4237 215.423 55.2941V54.1455C215.423 53.7562 215.402 53.3225 215.402 52.8679L215.38 51.33L215.358 50.2249V49.9651L215.359 49.9647ZM225.628 47.2144C228.964 47.2144 231 49.3156 231 52.7163C231 56.2043 228.877 58.3922 225.498 58.3922C222.162 58.3922 220.104 56.2905 220.104 52.9117C220.104 49.4018 222.227 47.2144 225.628 47.2144ZM225.562 55.7058C226.841 55.7058 227.599 54.644 227.599 52.8031C227.599 50.9835 226.862 49.9003 225.585 49.9003C224.263 49.9003 223.505 50.9621 223.505 52.8026C223.505 54.6445 224.263 55.7058 225.562 55.7058Z" fill="black"/>
<line x1="244.5" y1="6.55671e-08" x2="244.5" y2="106" stroke="white" stroke-width="3"/>
<path d="M298.232 58.8584C296.931 58.775 296.175 58.0349 295.975 56.6505C295.921 56.2821 295.921 56.2726 295.916 53.8817L295.91 51.5675H297.062L297.066 53.8059C297.07 55.8232 297.073 56.0601 297.092 56.2016C297.171 56.7778 297.326 57.1652 297.592 57.443C297.805 57.6656 298.054 57.7957 298.398 57.8648C298.56 57.8977 299.023 57.8977 299.171 57.8648C299.504 57.7971 299.809 57.6318 300.047 57.3902C300.329 57.109 300.537 56.7101 300.638 56.2593L300.671 56.1072L300.675 53.8502L300.679 51.5923H301.855V58.6902H300.691V58.1269C300.691 57.7447 300.687 57.5655 300.678 57.5684C300.652 57.5992 300.629 57.6333 300.612 57.6699C300.4 58.0467 300.088 58.358 299.712 58.5701C299.273 58.8108 298.833 58.8966 298.232 58.8584ZM311.433 58.8527C310.959 58.8133 310.501 58.6638 310.095 58.4162C309.262 57.9015 308.77 57.0532 308.626 55.8866C308.576 55.4825 308.569 54.9401 308.611 54.597C308.704 53.8298 309.006 53.0768 309.436 52.5397C309.545 52.4015 309.796 52.1523 309.933 52.0422C310.305 51.7456 310.74 51.5384 311.204 51.4365C311.474 51.3778 311.948 51.3502 312.235 51.3764C312.954 51.4431 313.613 51.7815 314.061 52.3138C314.516 52.8547 314.766 53.6105 314.799 54.5413C314.804 54.7307 314.804 54.9203 314.801 55.1098L314.795 55.4129L312.276 55.4158L309.757 55.4191V55.5316C309.757 55.8733 309.839 56.2626 309.983 56.5943C310.107 56.8798 310.321 57.1914 310.496 57.3425C310.854 57.652 311.301 57.8408 311.773 57.882C311.951 57.8986 312.405 57.881 312.607 57.85C313.186 57.7609 313.737 57.5341 314.18 57.2019C314.233 57.1624 314.283 57.1257 314.292 57.1204C314.305 57.1123 314.308 57.2143 314.308 57.6446V58.1784L314.188 58.2523C313.674 58.5666 313.098 58.7659 312.5 58.8365C312.318 58.8589 311.651 58.8689 311.433 58.8527ZM313.625 54.3468C313.625 53.7745 313.384 53.1383 313.042 52.8109C312.798 52.5772 312.487 52.4264 312.152 52.3801C311.986 52.3543 311.637 52.3643 311.462 52.3991C311.105 52.4672 310.776 52.6416 310.52 52.8995C310.238 53.179 310.024 53.5203 309.896 53.8965C309.849 54.0347 309.793 54.261 309.776 54.3869L309.767 54.4469H313.625V54.3468ZM279.453 58.674L281.354 53.6858L283.25 48.7134H284.468L284.519 48.8421C284.673 49.2381 288.314 58.6793 288.314 58.684C288.314 58.6874 288.022 58.6897 287.665 58.6897H287.017L286.493 57.2944L285.968 55.899H281.743L281.725 55.9466C281.715 55.9724 281.49 56.6005 281.226 57.3415L280.747 58.6897H280.097C279.583 58.6897 279.449 58.6869 279.453 58.674ZM285.582 54.8343C285.582 54.832 285.23 53.876 284.798 52.7089C283.991 50.5272 283.945 50.3956 283.882 50.0454C283.852 49.8814 283.836 49.8767 283.819 50.0263C283.793 50.1887 283.757 50.349 283.709 50.5062C283.688 50.5724 283.324 51.5689 282.901 52.7213C282.642 53.4226 282.385 54.1247 282.131 54.8277C282.131 54.8334 282.908 54.8382 283.857 54.8382C284.806 54.8382 285.582 54.8363 285.582 54.8343ZM288.705 58.5086V58.3266L290.81 55.4362L292.915 52.5459L291.009 52.5397L289.104 52.5335L289.1 52.0503L289.097 51.5675H294.61V51.8935L292.505 54.7996C291.347 56.3979 290.4 57.7085 290.4 57.7114C290.4 57.7147 291.335 57.7176 292.479 57.7176H294.559V58.6897H288.705V58.5086ZM304.151 58.6816C304.146 58.6769 304.143 57.0742 304.143 55.1203V51.567H305.294V52.2995C305.294 52.7027 305.298 53.032 305.304 53.032C305.31 53.032 305.338 52.9662 305.366 52.8857C305.5 52.51 305.72 52.1712 306.009 51.8968C306.258 51.6556 306.576 51.4979 306.918 51.4455C307.017 51.4298 307.1 51.4264 307.297 51.4317C307.545 51.4384 307.674 51.4565 307.825 51.5056L307.873 51.5208V52.7141L307.737 52.6464C307.501 52.5272 307.238 52.4744 306.975 52.4939C306.789 52.5035 306.668 52.5273 306.52 52.5826C306.219 52.6935 305.964 52.9017 305.795 53.174C305.537 53.5947 305.373 54.0661 305.314 54.556C305.304 54.6404 305.299 55.329 305.296 56.6858L305.293 58.6907H304.726C304.415 58.6907 304.156 58.6864 304.151 58.6816Z" fill="#0089D6"/>
<path d="M262.747 43.7434H268.561L262.525 61.6255C262.463 61.8093 262.345 61.969 262.188 62.0822C262.03 62.1953 261.841 62.2562 261.647 62.2561H257.123C256.976 62.2561 256.831 62.2211 256.7 62.154C256.569 62.087 256.456 61.9898 256.371 61.8704C256.285 61.7511 256.229 61.613 256.207 61.4677C256.185 61.3224 256.198 61.174 256.245 61.0347L261.868 44.3739C261.931 44.1901 262.049 44.0304 262.206 43.9173C262.364 43.8041 262.553 43.7432 262.747 43.7432V43.7434Z" fill="url(#paint0_linear_135_711)"/>
<path d="M271.195 55.7378H261.976C261.89 55.7376 261.806 55.7632 261.735 55.8114C261.664 55.8595 261.61 55.9279 261.578 56.0077C261.547 56.0874 261.54 56.1748 261.559 56.2584C261.578 56.3421 261.622 56.418 261.684 56.4765L267.608 62.006C267.781 62.1669 268.008 62.2563 268.244 62.2562H273.464L271.195 55.7378Z" fill="#0078D4"/>
<path d="M262.747 43.7437C262.551 43.7429 262.359 43.8049 262.201 43.9205C262.043 44.0362 261.926 44.1994 261.867 44.3864L256.252 61.0198C256.202 61.1595 256.187 61.3093 256.207 61.4564C256.227 61.6035 256.282 61.7436 256.367 61.8649C256.453 61.9862 256.566 62.0851 256.698 62.1532C256.83 62.2213 256.977 62.2567 257.125 62.2563H261.766C261.939 62.2255 262.101 62.1493 262.235 62.0355C262.368 61.9217 262.47 61.7745 262.528 61.6088L263.647 58.3094L267.646 62.0393C267.814 62.1779 268.024 62.2546 268.242 62.2563H273.443L271.162 55.7377L264.512 55.7393L268.582 43.7437H262.747Z" fill="url(#paint1_linear_135_711)"/>
<path d="M270.173 44.3733C270.111 44.1897 269.993 44.0302 269.835 43.9173C269.678 43.8043 269.489 43.7436 269.296 43.7437H262.816C263.01 43.7437 263.199 43.8044 263.356 43.9174C263.513 44.0303 263.631 44.1898 263.693 44.3733L269.316 61.0348C269.363 61.1741 269.377 61.3225 269.355 61.4679C269.333 61.6133 269.277 61.7514 269.191 61.8708C269.106 61.9902 268.993 62.0875 268.862 62.1546C268.731 62.2217 268.586 62.2567 268.439 62.2566H274.919C275.066 62.2565 275.211 62.2214 275.341 62.1543C275.472 62.0872 275.585 61.9899 275.671 61.8705C275.756 61.7511 275.812 61.6131 275.834 61.4678C275.856 61.3224 275.843 61.174 275.796 61.0348L270.173 44.3733Z" fill="url(#paint2_linear_135_711)"/>
<line x1="329.5" y1="6.55671e-08" x2="329.5" y2="106" stroke="white" stroke-width="3"/>
<g clip-path="url(#clip0_135_711)">
<path d="M396.663 46.7829C394.59 46.7829 393.047 47.8007 393.047 50.2503C393.047 52.0959 394.064 53.3774 396.551 53.3774C398.66 53.3774 400.092 52.1348 400.092 50.1736C400.092 47.9514 398.811 46.7829 396.663 46.7829ZM392.519 64.0796C392.028 64.6814 391.539 65.3214 391.539 66.0759C391.539 67.5822 393.46 68.0355 396.099 68.0355C398.284 68.0355 401.261 67.8822 401.261 65.8503C401.261 64.6425 399.829 64.5681 398.019 64.4548L392.519 64.0796ZM403.672 46.8966C404.349 47.7633 405.066 48.9696 405.066 50.7025C405.066 54.8848 401.788 57.3336 397.041 57.3336C395.834 57.3336 394.741 57.1833 394.064 56.9951L392.82 58.9914L396.512 59.2174C403.031 59.6329 406.873 59.8218 406.873 64.8311C406.873 69.1651 403.069 71.6129 396.512 71.6129C389.693 71.6129 387.093 69.8796 387.093 66.9033C387.093 65.2077 387.846 64.3051 389.165 63.0596C387.921 62.534 387.507 61.5925 387.507 60.5744C387.507 59.7448 387.921 58.9918 388.601 58.2751C389.279 57.5603 390.032 56.8436 390.936 56.0148C389.09 55.1103 387.696 53.1511 387.696 50.3622C387.696 46.0299 390.56 43.0544 396.323 43.0544C397.944 43.0544 398.924 43.2033 399.791 43.4311H407.139V46.6325L403.672 46.8966ZM413.768 40.0496C411.62 40.0496 410.376 38.8051 410.376 36.6566C410.376 34.5111 411.619 33.3418 413.768 33.3418C415.953 33.3418 417.197 34.5111 417.197 36.6566C417.197 38.8051 415.953 40.0496 413.768 40.0496ZM408.906 62.6929V59.7177L410.829 59.4548C411.356 59.3788 411.431 59.2662 411.431 58.6999V47.6222C411.431 47.2088 411.319 46.9436 410.94 46.8318L408.906 46.1151L409.32 43.064H417.121V58.6999C417.121 59.3036 417.157 59.3788 417.724 59.4551L419.646 59.7181V62.6929H408.906ZM434.546 61.2322C432.925 62.0229 430.551 62.7388 428.403 62.7388C423.919 62.7388 422.224 60.9322 422.224 56.6722V46.8014C422.224 46.5755 422.224 46.4248 421.922 46.4248H419.285V43.0703C422.601 42.6925 423.919 41.0348 424.334 36.9277H427.914V42.2796C427.914 42.5425 427.914 42.6562 428.216 42.6562H433.528V46.424H427.914V55.4288C427.914 57.6518 428.442 58.5177 430.476 58.5177C431.532 58.5177 432.623 58.2548 433.527 57.9155L434.546 61.2322Z" fill="#2F2707"/>
<path d="M378.717 51.3445L361.489 34.1175C361.253 33.8815 360.973 33.6943 360.665 33.5665C360.356 33.4388 360.026 33.373 359.692 33.373C359.358 33.373 359.028 33.4388 358.72 33.5665C358.411 33.6943 358.131 33.8815 357.895 34.1175L354.318 37.6953L358.856 42.233C359.389 42.0516 359.963 42.0232 360.512 42.1511C361.06 42.2789 361.562 42.5579 361.961 42.9564C362.361 43.3574 362.641 43.8629 362.768 44.4153C362.894 44.9677 362.863 45.5446 362.678 46.0801L367.051 50.4538C368.109 50.0893 369.33 50.3253 370.175 51.1716C370.456 51.4523 370.678 51.7856 370.831 52.1524C370.983 52.5192 371.061 52.9124 371.061 53.3095C371.061 53.7066 370.983 54.0998 370.831 54.4667C370.678 54.8335 370.456 55.1668 370.175 55.4475C369.681 55.9421 369.03 56.2502 368.335 56.3193C367.639 56.3884 366.941 56.2143 366.359 55.8265C365.777 55.4388 365.348 54.8614 365.144 54.1926C364.94 53.5238 364.974 52.8051 365.24 52.1586L361.161 48.0801L361.161 58.8134C361.457 58.9596 361.727 59.1527 361.961 59.3853C362.242 59.6661 362.464 59.9994 362.616 60.3663C362.768 60.7332 362.847 61.1265 362.847 61.5236C362.847 61.9207 362.768 62.314 362.616 62.6809C362.464 63.0478 362.242 63.3811 361.961 63.6619C360.779 64.8434 358.864 64.8434 357.685 63.6619C357.332 63.3098 357.072 62.876 356.928 62.3992C356.784 61.9223 356.759 61.4172 356.857 60.9287C356.955 60.4402 357.172 59.9835 357.489 59.5991C357.806 59.2148 358.214 58.9147 358.674 58.7256V47.8923C358.304 47.7409 357.967 47.5164 357.685 47.2323C356.79 46.3386 356.575 45.0256 357.033 43.9267L352.56 39.4527L340.747 51.2645C340.511 51.5006 340.324 51.7808 340.196 52.0892C340.069 52.3976 340.003 52.7281 340.003 53.0619C340.003 53.3957 340.069 53.7263 340.196 54.0347C340.324 54.3431 340.511 54.6233 340.747 54.8593L357.976 72.0867C358.452 72.5632 359.098 72.8309 359.772 72.8309C360.446 72.8309 361.093 72.5632 361.569 72.0867L378.717 54.9397C379.194 54.4629 379.461 53.8163 379.461 53.1421C379.461 52.468 379.194 51.8214 378.717 51.3445Z" fill="#DE4C36"/>
</g>
<line x1="448.32" y1="6.55671e-08" x2="448.32" y2="106" stroke="white" stroke-width="3"/>
<path d="M488.82 40.1329C477.021 40.1329 467.453 36.8006 467.453 32.4009V73.5993C467.453 77.8331 476.854 81.2662 488.52 81.3337H488.82C500.619 81.3337 510.187 77.9995 510.187 73.5993V32.4009C510.187 36.7003 500.619 40.1329 488.82 40.1329Z" fill="url(#paint3_linear_135_711)"/>
<path d="M510.187 32.4009C510.187 36.7003 500.619 40.1334 488.82 40.1334C477.021 40.1334 467.453 36.8006 467.453 32.4009C467.453 28.0007 477.021 24.6665 488.82 24.6665C500.619 24.6665 510.187 28.0007 510.187 32.4009Z" fill="#E8E8E8"/>
<path d="M505.221 31.767C505.221 34.5008 497.853 36.7002 488.82 36.7002C479.787 36.7002 472.419 34.5008 472.419 31.767C472.419 29.0333 479.787 26.8672 488.82 26.8672C497.853 26.8672 505.221 29.0661 505.221 31.767Z" fill="#50E6FF"/>
<path d="M488.82 32.9993C484.421 32.8876 480.035 33.5305 475.852 34.9001C480.039 36.2444 484.426 36.8534 488.82 36.7001C493.223 36.8286 497.614 36.1739 501.787 34.7665C497.593 33.461 493.211 32.8638 488.82 32.9993Z" fill="#198AB3"/>
<path d="M501.82 60.9997V49.6676H498.819V63.4334H507.021V60.9997H501.82ZM478.02 55.4333C477.401 55.1841 476.826 54.8353 476.319 54.4006C476.185 54.2583 476.08 54.0906 476.012 53.9073C475.943 53.724 475.912 53.5288 475.92 53.3333C475.91 53.1376 475.951 52.9426 476.038 52.7674C476.126 52.5922 476.257 52.4426 476.42 52.3334C476.83 52.0497 477.323 51.9089 477.821 51.9326C479.008 51.8798 480.179 52.2195 481.154 52.8992V50.0337C480.089 49.6363 478.956 49.4552 477.821 49.5008C476.513 49.4306 475.223 49.8322 474.186 50.6323C473.734 50.9809 473.372 51.4317 473.129 51.9478C472.886 52.4638 472.769 53.0303 472.787 53.6005C472.787 55.2997 473.853 56.6328 476.12 57.6326C476.856 57.9458 477.55 58.3484 478.187 58.8336C478.343 58.9642 478.469 59.1273 478.555 59.3114C478.641 59.4955 478.686 59.6962 478.687 59.8995C478.687 60.3116 478.487 60.6959 478.154 60.9341C477.7 61.1991 477.178 61.3263 476.653 61.3001C475.312 61.2889 474.021 60.7912 473.02 59.8995V62.9994C474.121 63.5675 475.349 63.8431 476.587 63.7995C477.984 63.882 479.368 63.4958 480.52 62.6989C480.926 62.3139 481.238 61.8394 481.429 61.3131C481.62 60.7868 481.685 60.2232 481.62 59.667C481.637 58.8137 481.34 57.9839 480.787 57.3341C480.008 56.5137 479.066 55.8661 478.02 55.4333ZM495.487 60.7325C496.244 59.4653 496.625 58.0093 496.587 56.5339C496.512 55.2843 496.134 54.0716 495.487 53C494.967 51.9593 494.156 51.0913 493.154 50.5006C492.138 49.9242 490.988 49.6248 489.82 49.6325C488.561 49.6053 487.318 49.9165 486.22 50.5334C485.191 51.1075 484.347 51.9631 483.787 53C483.196 54.1783 482.899 55.4816 482.92 56.7992C482.927 57.9575 483.201 59.0987 483.72 60.1339C484.229 61.1631 485.029 62.0205 486.02 62.6C487.027 63.2133 488.175 63.5576 489.353 63.5998L492.22 66.9326H496.254L492.152 63.267C493.534 62.8526 494.718 61.9523 495.487 60.7325ZM492.152 59.8995C491.849 60.2765 491.463 60.578 491.023 60.7803C490.584 60.9827 490.104 61.0804 489.62 61.0658C489.133 61.0818 488.649 60.9814 488.208 60.7728C487.767 60.5641 487.383 60.2534 487.086 59.8662C486.383 58.9033 486.04 57.7237 486.119 56.5339C486.042 55.3437 486.385 54.1642 487.086 53.1997C487.4 52.8128 487.796 52.5013 488.246 52.2879C488.696 52.0746 489.188 51.9648 489.686 51.9669C490.173 51.9454 490.658 52.0471 491.095 52.2626C491.532 52.4781 491.908 52.8004 492.187 53.1997C492.844 54.1829 493.159 55.3541 493.087 56.5339C493.204 57.7328 492.871 58.9325 492.152 59.8995Z" fill="url(#paint4_radial_135_711)"/>
<rect x="0.5" y="0.5" width="517.82" height="105" rx="5.5" stroke="white"/>
<defs>
<linearGradient id="paint0_linear_135_711" x1="264.866" y1="45.1153" x2="258.828" y2="62.9525" gradientUnits="userSpaceOnUse">
<stop stop-color="#114A8B"/>
<stop offset="1" stop-color="#0669BC"/>
</linearGradient>
<linearGradient id="paint1_linear_135_711" x1="266.752" y1="53.4281" x2="265.355" y2="53.9004" gradientUnits="userSpaceOnUse">
<stop stop-opacity="0.3"/>
<stop offset="0.071" stop-opacity="0.2"/>
<stop offset="0.321" stop-opacity="0.1"/>
<stop offset="0.623" stop-opacity="0.05"/>
<stop offset="1" stop-opacity="0"/>
</linearGradient>
<linearGradient id="paint2_linear_135_711" x1="265.984" y1="44.5952" x2="272.612" y2="62.2528" gradientUnits="userSpaceOnUse">
<stop stop-color="#3CCBF4"/>
<stop offset="1" stop-color="#2892DF"/>
</linearGradient>
<linearGradient id="paint3_linear_135_711" x1="467.453" y1="56.8668" x2="510.187" y2="56.8668" gradientUnits="userSpaceOnUse">
<stop stop-color="#005BA1"/>
<stop offset="0.07" stop-color="#0060A9"/>
<stop offset="0.36" stop-color="#0071C8"/>
<stop offset="0.52" stop-color="#0078D4"/>
<stop offset="0.64" stop-color="#0074CD"/>
<stop offset="0.82" stop-color="#006ABB"/>
<stop offset="1" stop-color="#005BA1"/>
</linearGradient>
<radialGradient id="paint4_radial_135_711" cx="0" cy="0" r="1" gradientUnits="userSpaceOnUse" gradientTransform="translate(24895 7889.77) scale(17676.7 4585.18)">
<stop stop-color="#F2F2F2"/>
<stop offset="0.58" stop-color="#EEEEEE"/>
<stop offset="1" stop-color="#E6E6E6"/>
</radialGradient>
<clipPath id="clip0_135_711">
<rect width="94.82" height="40" fill="white" transform="translate(340 33)"/>
</clipPath>
</defs>
</svg>
