<svg width="60" height="60" viewBox="0 0 60 60" fill="none" xmlns="http://www.w3.org/2000/svg">
<path d="M37.432 8.57989C32.5425 7.44372 27.4576 7.44372 22.568 8.57989C19.744 6.84789 17.588 6.05189 16.02 5.71589C15.3508 5.56485 14.666 5.49369 13.98 5.50389C13.6679 5.51235 13.3572 5.54984 13.052 5.61589L13.012 5.62389L12.996 5.63189H12.984L13.532 7.55589L12.984 5.63589C12.703 5.7153 12.4428 5.85529 12.2217 6.04602C12.0005 6.23674 11.8239 6.47358 11.704 6.73989C10.5239 9.38272 10.2991 12.3536 11.068 15.1439C9.07657 17.5573 7.99133 20.5909 8.00003 23.7199C8.00003 29.9319 9.83203 34.1079 12.956 36.7919C15.144 38.6719 17.8 39.6719 20.464 40.2439C20.0448 41.4751 19.8868 42.7802 20 44.0759V46.4679C18.372 46.8079 17.244 46.6999 16.44 46.4359C15.436 46.1039 14.664 45.4359 13.924 44.4759C13.5372 43.9584 13.1767 43.4217 12.844 42.8679L12.616 42.4959C12.3281 42.0172 12.0294 41.545 11.72 41.0799C10.96 39.9559 9.83203 38.5479 8.00803 38.0679L6.07203 37.5599L5.05603 41.4319L6.99203 41.9399C7.31203 42.0199 7.72803 42.3199 8.41203 43.3239C8.6753 43.7202 8.92871 44.123 9.17203 44.5319L9.44403 44.9719C9.82003 45.5799 10.252 46.2519 10.752 46.9079C11.764 48.2279 13.144 49.5599 15.192 50.2359C16.592 50.6999 18.184 50.8119 20 50.5319V57.9999C20 58.5303 20.2107 59.039 20.5858 59.4141C20.9609 59.7892 21.4696 59.9999 22 59.9999H38C38.5305 59.9999 39.0392 59.7892 39.4142 59.4141C39.7893 59.039 40 58.5303 40 57.9999V43.7479C40 42.4879 39.944 41.3319 39.588 40.2559C42.24 39.6959 44.876 38.6959 47.052 36.8159C50.172 34.1119 52 29.8959 52 23.6479V23.6439C51.99 20.5405 50.9043 17.5366 48.928 15.1439C49.696 12.3548 49.4712 9.38555 48.292 6.74389C48.1731 6.47727 47.9972 6.23991 47.7768 6.0485C47.5564 5.85708 47.2967 5.71625 47.016 5.63589L46.468 7.55589C47.016 5.63589 47.012 5.63589 47.008 5.63589L47 5.63189L46.984 5.62389L46.948 5.61589C46.8493 5.5902 46.7491 5.57017 46.648 5.55589C46.4387 5.52532 46.2276 5.50795 46.016 5.50389C45.33 5.49376 44.6453 5.56492 43.976 5.71589C42.412 6.05189 40.256 6.84789 37.432 8.57989Z" fill="#A53DFF"/>
</svg>
