<svg width="73" height="72" viewBox="0 0 73 72" fill="none" xmlns="http://www.w3.org/2000/svg">
<rect x="0.297974" width="72" height="72" rx="6" fill="#EDD8FF" fill-opacity="0.5"/>
<path d="M29.6313 41.3334C30.1617 41.3334 30.6704 41.1227 31.0455 40.7476C31.4206 40.3726 31.6313 39.8638 31.6313 39.3334C31.6378 39.2669 31.6378 39.1999 31.6313 39.1334L35.3513 35.4134H35.658H35.9646L38.1113 37.5601C38.1113 37.5601 38.1113 37.6267 38.1113 37.6667C38.1113 38.1972 38.322 38.7059 38.6971 39.081C39.0722 39.456 39.5809 39.6667 40.1113 39.6667C40.6417 39.6667 41.1504 39.456 41.5255 39.081C41.9006 38.7059 42.1113 38.1972 42.1113 37.6667V37.5601L46.9646 32.6667C47.3602 32.6667 47.7469 32.5495 48.0758 32.3297C48.4047 32.1099 48.661 31.7976 48.8124 31.4321C48.9638 31.0667 49.0034 30.6645 48.9262 30.2766C48.849 29.8886 48.6586 29.5322 48.3789 29.2525C48.0991 28.9728 47.7428 28.7823 47.3548 28.7052C46.9669 28.628 46.5647 28.6676 46.1993 28.819C45.8338 28.9704 45.5215 29.2267 45.3017 29.5556C45.0819 29.8845 44.9646 30.2712 44.9646 30.6667C44.9581 30.7333 44.9581 30.8002 44.9646 30.8667L40.1513 35.6801H39.938L37.6313 33.3334C37.6313 32.803 37.4206 32.2943 37.0455 31.9192C36.6704 31.5441 36.1617 31.3334 35.6313 31.3334C35.1009 31.3334 34.5922 31.5441 34.2171 31.9192C33.842 32.2943 33.6313 32.803 33.6313 33.3334L29.6313 37.3334C29.1009 37.3334 28.5922 37.5441 28.2171 37.9192C27.842 38.2943 27.6313 38.803 27.6313 39.3334C27.6313 39.8638 27.842 40.3726 28.2171 40.7476C28.5922 41.1227 29.1009 41.3334 29.6313 41.3334V41.3334ZM47.6313 46.6667H24.9646V24.0001C24.9646 23.6465 24.8242 23.3073 24.5741 23.0573C24.3241 22.8072 23.9849 22.6667 23.6313 22.6667C23.2777 22.6667 22.9385 22.8072 22.6885 23.0573C22.4384 23.3073 22.298 23.6465 22.298 24.0001V48.0001C22.298 48.3537 22.4384 48.6928 22.6885 48.9429C22.9385 49.1929 23.2777 49.3334 23.6313 49.3334H47.6313C47.9849 49.3334 48.3241 49.1929 48.5741 48.9429C48.8242 48.6928 48.9646 48.3537 48.9646 48.0001C48.9646 47.6465 48.8242 47.3073 48.5741 47.0573C48.3241 46.8072 47.9849 46.6667 47.6313 46.6667Z" fill="#A53DFF"/>
</svg>
