<svg width="186" height="56" viewBox="0 0 186 56" fill="none" xmlns="http://www.w3.org/2000/svg">
<rect width="56" height="56" rx="28" fill="#A53DFF"/>
<path d="M30.992 36L24.536 28.536V36H21.8V19.32H24.536V26.928L31.016 19.32H34.448L27.2 27.672L34.568 36H30.992Z" fill="white"/>
<path d="M88.96 17.88L79.296 28.856L78.944 28.504L73.664 34.488L72.992 30.392L83.84 17.88H88.96ZM75.168 17.88V39H70.752V17.88H75.168ZM80.512 25.176L89.216 39H84.16L77.12 27.64L80.512 25.176ZM98.0063 22.68C99.6276 22.68 101.046 23.0107 102.262 23.672C103.5 24.3333 104.46 25.2827 105.142 26.52C105.846 27.7573 106.198 29.2507 106.198 31C106.198 32.728 105.846 34.2213 105.142 35.48C104.46 36.7173 103.5 37.6667 102.262 38.328C101.046 38.9893 99.6276 39.32 98.0063 39.32C96.4063 39.32 94.9876 38.9893 93.7503 38.328C92.5129 37.6667 91.5423 36.7173 90.8383 35.48C90.1556 34.2213 89.8143 32.728 89.8143 31C89.8143 29.2507 90.1556 27.7573 90.8383 26.52C91.5423 25.2827 92.5129 24.3333 93.7503 23.672C94.9876 23.0107 96.4063 22.68 98.0063 22.68ZM98.0063 25.944C97.1956 25.944 96.5023 26.136 95.9263 26.52C95.3716 26.8827 94.9449 27.4373 94.6463 28.184C94.3476 28.9307 94.1983 29.8693 94.1983 31C94.1983 32.1307 94.3476 33.0693 94.6463 33.816C94.9449 34.5627 95.3716 35.128 95.9263 35.512C96.5023 35.8747 97.1956 36.056 98.0063 36.056C98.7956 36.056 99.4676 35.8747 100.022 35.512C100.598 35.128 101.036 34.5627 101.334 33.816C101.633 33.0693 101.782 32.1307 101.782 31C101.782 29.8693 101.633 28.9307 101.334 28.184C101.036 27.4373 100.598 26.8827 100.022 26.52C99.4676 26.136 98.7956 25.944 98.0063 25.944ZM109.867 39V23H113.803L114.059 27.8L113.515 27.288C113.771 26.2427 114.176 25.3787 114.731 24.696C115.285 24.0133 115.957 23.512 116.747 23.192C117.557 22.8507 118.443 22.68 119.403 22.68C120.512 22.68 121.493 22.8933 122.347 23.32C123.221 23.7467 123.904 24.3973 124.395 25.272C124.907 26.1253 125.163 27.2027 125.163 28.504V39H120.779V29.752C120.779 28.3867 120.512 27.448 119.979 26.936C119.445 26.4027 118.752 26.136 117.899 26.136C117.301 26.136 116.715 26.2853 116.139 26.584C115.584 26.8613 115.125 27.32 114.763 27.96C114.421 28.6 114.251 29.4533 114.251 30.52V39H109.867ZM138.799 28.792C138.799 27.8747 138.532 27.16 137.999 26.648C137.487 26.136 136.804 25.88 135.951 25.88C135.162 25.88 134.468 26.0827 133.871 26.488C133.274 26.8933 132.836 27.5653 132.559 28.504L128.815 27.352C129.178 25.944 129.967 24.8133 131.183 23.96C132.42 23.1067 134.074 22.68 136.143 22.68C137.551 22.68 138.778 22.904 139.823 23.352C140.868 23.7787 141.679 24.4293 142.255 25.304C142.852 26.1787 143.151 27.2773 143.151 28.6V35.096C143.151 35.9067 143.535 36.312 144.303 36.312C144.666 36.312 145.007 36.2587 145.327 36.152L145.071 38.872C144.516 39.1493 143.823 39.288 142.991 39.288C142.244 39.288 141.572 39.16 140.975 38.904C140.378 38.648 139.908 38.264 139.567 37.752C139.226 37.2187 139.055 36.5573 139.055 35.768V35.64L139.823 35.512C139.695 36.3227 139.343 37.016 138.767 37.592C138.191 38.1467 137.487 38.5733 136.655 38.872C135.844 39.1707 135.002 39.32 134.127 39.32C133.039 39.32 132.1 39.16 131.311 38.84C130.522 38.4987 129.914 38.008 129.487 37.368C129.06 36.728 128.847 35.9387 128.847 35C128.847 33.8053 129.231 32.8347 129.999 32.088C130.767 31.32 131.866 30.7973 133.295 30.52L139.311 29.304L139.279 32.024L135.439 32.792C134.714 32.9413 134.159 33.144 133.775 33.4C133.412 33.6347 133.231 34.0293 133.231 34.584C133.231 35.1173 133.423 35.5227 133.807 35.8C134.212 36.0773 134.692 36.216 135.247 36.216C135.695 36.216 136.132 36.1627 136.559 36.056C136.986 35.9493 137.37 35.7787 137.711 35.544C138.052 35.3093 138.319 34.9893 138.511 34.584C138.703 34.1787 138.799 33.688 138.799 33.112V28.792ZM154.04 39.32C152.717 39.32 151.533 38.9893 150.488 38.328C149.464 37.6667 148.653 36.7173 148.056 35.48C147.48 34.2427 147.192 32.76 147.192 31.032C147.192 29.2613 147.501 27.7573 148.12 26.52C148.738 25.2613 149.57 24.312 150.616 23.672C151.682 23.0107 152.877 22.68 154.2 22.68C155.608 22.68 156.77 23.0853 157.688 23.896C158.605 24.7067 159.202 25.752 159.48 27.032L159.064 27.544V15.992H163.448V39H159.512L159.224 34.136L159.768 34.392C159.618 35.3947 159.277 36.2693 158.744 37.016C158.21 37.7413 157.538 38.3067 156.728 38.712C155.917 39.1173 155.021 39.32 154.04 39.32ZM155.32 35.96C156.088 35.96 156.749 35.768 157.304 35.384C157.858 34.9787 158.285 34.392 158.584 33.624C158.904 32.856 159.064 31.9387 159.064 30.872C159.064 29.848 158.914 28.984 158.616 28.28C158.317 27.5547 157.89 27 157.336 26.616C156.781 26.232 156.13 26.04 155.384 26.04C154.189 26.04 153.25 26.4667 152.568 27.32C151.906 28.152 151.576 29.3787 151.576 31C151.576 32.6213 151.906 33.8587 152.568 34.712C153.229 35.544 154.146 35.96 155.32 35.96ZM173.622 39.32C172.555 39.32 171.595 39.128 170.742 38.744C169.889 38.36 169.206 37.752 168.694 36.92C168.203 36.0667 167.958 34.968 167.958 33.624V23H172.342V32.568C172.342 33.8053 172.598 34.6693 173.11 35.16C173.622 35.6293 174.358 35.864 175.318 35.864C175.766 35.864 176.203 35.7893 176.63 35.64C177.057 35.4693 177.43 35.2133 177.75 34.872C178.091 34.5307 178.358 34.0933 178.55 33.56C178.742 33.0053 178.838 32.3547 178.838 31.608V23H183.222V39H179.318L179.158 36.216C178.625 37.2827 177.889 38.072 176.95 38.584C176.033 39.0747 174.923 39.32 173.622 39.32Z" fill="#132238"/>
</svg>
