<svg width="73" height="72" viewBox="0 0 73 72" fill="none" xmlns="http://www.w3.org/2000/svg">
<rect x="0.297974" width="72" height="72" rx="6" fill="#A53DFF"/>
<path d="M41.6313 38.6667H30.9646C30.611 38.6667 30.2719 38.8072 30.0218 39.0573C29.7718 39.3073 29.6313 39.6465 29.6313 40.0001C29.6313 40.3537 29.7718 40.6928 30.0218 40.9429C30.2719 41.1929 30.611 41.3334 30.9646 41.3334H41.6313C41.9849 41.3334 42.3241 41.1929 42.5741 40.9429C42.8242 40.6928 42.9646 40.3537 42.9646 40.0001C42.9646 39.6465 42.8242 39.3073 42.5741 39.0573C42.3241 38.8072 41.9849 38.6667 41.6313 38.6667ZM41.6313 33.3334H33.6313C33.2777 33.3334 32.9385 33.4739 32.6885 33.7239C32.4384 33.974 32.298 34.3131 32.298 34.6667C32.298 35.0204 32.4384 35.3595 32.6885 35.6096C32.9385 35.8596 33.2777 36.0001 33.6313 36.0001H41.6313C41.9849 36.0001 42.3241 35.8596 42.5741 35.6096C42.8242 35.3595 42.9646 35.0204 42.9646 34.6667C42.9646 34.3131 42.8242 33.974 42.5741 33.7239C42.3241 33.4739 41.9849 33.3334 41.6313 33.3334ZM46.9646 25.3334H42.9646V24.0001C42.9646 23.6465 42.8242 23.3073 42.5741 23.0573C42.3241 22.8072 41.9849 22.6667 41.6313 22.6667C41.2777 22.6667 40.9385 22.8072 40.6885 23.0573C40.4384 23.3073 40.298 23.6465 40.298 24.0001V25.3334H37.6313V24.0001C37.6313 23.6465 37.4908 23.3073 37.2408 23.0573C36.9907 22.8072 36.6516 22.6667 36.298 22.6667C35.9444 22.6667 35.6052 22.8072 35.3552 23.0573C35.1051 23.3073 34.9646 23.6465 34.9646 24.0001V25.3334H32.298V24.0001C32.298 23.6465 32.1575 23.3073 31.9074 23.0573C31.6574 22.8072 31.3183 22.6667 30.9646 22.6667C30.611 22.6667 30.2719 22.8072 30.0218 23.0573C29.7718 23.3073 29.6313 23.6465 29.6313 24.0001V25.3334H25.6313C25.2777 25.3334 24.9385 25.4739 24.6885 25.7239C24.4384 25.974 24.298 26.3131 24.298 26.6667V45.3334C24.298 46.3943 24.7194 47.4117 25.4695 48.1618C26.2197 48.912 27.2371 49.3334 28.298 49.3334H44.298C45.3588 49.3334 46.3763 48.912 47.1264 48.1618C47.8765 47.4117 48.298 46.3943 48.298 45.3334V26.6667C48.298 26.3131 48.1575 25.974 47.9075 25.7239C47.6574 25.4739 47.3183 25.3334 46.9646 25.3334ZM45.6313 45.3334C45.6313 45.687 45.4908 46.0262 45.2408 46.2762C44.9907 46.5263 44.6516 46.6667 44.298 46.6667H28.298C27.9444 46.6667 27.6052 46.5263 27.3552 46.2762C27.1051 46.0262 26.9646 45.687 26.9646 45.3334V28.0001H29.6313V29.3334C29.6313 29.687 29.7718 30.0262 30.0218 30.2762C30.2719 30.5263 30.611 30.6667 30.9646 30.6667C31.3183 30.6667 31.6574 30.5263 31.9074 30.2762C32.1575 30.0262 32.298 29.687 32.298 29.3334V28.0001H34.9646V29.3334C34.9646 29.687 35.1051 30.0262 35.3552 30.2762C35.6052 30.5263 35.9444 30.6667 36.298 30.6667C36.6516 30.6667 36.9907 30.5263 37.2408 30.2762C37.4908 30.0262 37.6313 29.687 37.6313 29.3334V28.0001H40.298V29.3334C40.298 29.687 40.4384 30.0262 40.6885 30.2762C40.9385 30.5263 41.2777 30.6667 41.6313 30.6667C41.9849 30.6667 42.3241 30.5263 42.5741 30.2762C42.8242 30.0262 42.9646 29.687 42.9646 29.3334V28.0001H45.6313V45.3334Z" fill="white"/>
</svg>
