<svg width="60" height="60" viewBox="0 0 60 60" fill="none" xmlns="http://www.w3.org/2000/svg">
<path d="M55 14.4901C53.1276 15.32 51.1414 15.8644 49.1075 16.1051C51.2505 14.8237 52.8544 12.8067 53.62 10.4301C51.6066 11.6263 49.403 12.4684 47.105 12.9201C45.697 11.4211 43.8711 10.3798 41.8641 9.93109C39.8571 9.48239 37.7616 9.64702 35.8493 10.4036C33.937 11.1603 32.2962 12.474 31.1395 14.1744C29.9829 15.8748 29.3638 17.8835 29.3625 19.9401C29.3611 20.7267 29.4492 21.5109 29.625 22.2776C25.5469 22.0728 21.5574 21.0129 17.9155 19.1665C14.2735 17.3201 11.0605 14.7286 8.485 11.5601C7.17315 13.8185 6.77125 16.4919 7.36111 19.0362C7.95096 21.5804 9.48824 23.8043 11.66 25.2551C10.0298 25.2051 8.43532 24.7653 7.01 23.9726V24.1026C7.0104 26.4712 7.83015 28.7668 9.3302 30.6C10.8303 32.4331 12.9183 33.691 15.24 34.1601C14.3592 34.3996 13.4503 34.5198 12.5375 34.5176C11.8891 34.5179 11.2422 34.4576 10.605 34.3376C11.2601 36.3755 12.5357 38.1577 14.2533 39.4352C15.9709 40.7126 18.0448 41.4215 20.185 41.4626C15.8835 44.8292 10.4235 46.3547 5 45.7051C9.69014 48.7201 15.1494 50.3205 20.725 50.3151C24.5644 50.341 28.3707 49.6038 31.9229 48.1464C35.475 46.689 38.7022 44.5404 41.417 41.8253C44.1319 39.1103 46.2802 35.8829 47.7373 32.3306C49.1944 28.7784 49.9312 24.972 49.905 21.1326C49.905 20.6876 49.8942 20.2459 49.8725 19.8076C51.8838 18.3536 53.6201 16.553 55 14.4901Z" fill="#A53DFF"/>
</svg>
